<svg width="1440" height="338" viewBox="0 0 1440 338" fill="none" xmlns="http://www.w3.org/2000/svg">
<path d="M710.943 213.16C656.443 256.66 606.834 161.256 656.443 106.659C735.943 31.6594 854.67 72.7884 783.443 106.659C707.214 142.91 765.443 169.66 710.943 213.16Z" stroke="white" stroke-opacity="0.6" stroke-width="2"/>
<path d="M-57.9844 329.699C432.016 370.699 378.015 209.199 325.015 223.046C271.485 237.03 248.515 168.199 417.515 87.1994C575.417 11.5187 702.178 34.1912 612.515 134.199C417.515 351.699 802.052 355.046 990.516 151.046C1130.02 0.0453644 1290.81 -39.955 1237 44.5848C1167.02 154.544 1403.67 120.585 1498 44.5848" stroke="white" stroke-opacity="0.6" stroke-width="2"/>
</svg>
