<svg width="748" height="163" viewBox="0 0 748 163" fill="none" xmlns="http://www.w3.org/2000/svg">
<path d="M106.057 102.853C79.9274 123.737 56.1428 77.9356 79.9274 51.7248C118.043 15.7189 174.965 35.464 140.816 51.7248C104.269 69.1277 132.186 81.9697 106.057 102.853Z" stroke="#69A7CA" stroke-opacity="0.4"/>
<path d="M1 158.801C235.925 178.485 210.035 100.952 184.625 107.599C158.961 114.313 147.948 81.2688 228.973 42.3825C304.677 6.04981 365.451 16.9344 322.464 64.9461C228.973 169.363 413.335 170.97 503.692 73.0336C570.574 0.5417 647.663 -18.6616 621.866 21.9241C588.313 74.7133 701.773 58.4101 747 21.9241" stroke="#69A7CA" stroke-opacity="0.4"/>
</svg>
