<svg width="28" height="28" viewBox="0 0 28 28" fill="none" xmlns="http://www.w3.org/2000/svg">
<rect width="28" height="28" rx="14" fill="#6CBDD7"/>
<path d="M7 14.135C7 13.233 7.74007 12.4909 8.62866 12.5063C9.13529 12.5151 9.54779 12.7293 9.88624 13.0992C10.2556 13.5025 10.6267 13.9045 10.997 14.307C11.3911 14.7349 11.7856 15.1629 12.1797 15.5909C12.2031 15.6164 12.2294 15.6398 12.2512 15.667C12.2918 15.7176 12.3211 15.7164 12.3642 15.6633C12.7629 15.17 13.1636 14.6789 13.5644 14.1869C14.5593 12.9657 15.5541 11.7449 16.549 10.5238C17.0552 9.9025 17.5626 9.28208 18.0659 8.65873C18.6562 7.92702 19.6293 7.78604 20.3568 8.33074C21.0894 8.8792 21.2166 9.93555 20.633 10.653C19.2808 12.3156 17.9266 13.976 16.5741 15.6377C15.6127 16.8183 14.6513 17.9994 13.6912 19.1808C13.3787 19.5653 12.9825 19.7987 12.4851 19.8284C12.0257 19.856 11.609 19.7209 11.2844 19.3904C10.8472 18.9457 10.4293 18.4826 10.0046 18.0253C9.61807 17.609 9.23444 17.1907 8.84871 16.7736C8.38727 16.2749 7.92415 15.7779 7.46438 15.2775C7.16651 14.9558 7.00042 14.5785 7 14.135Z" fill="white"/>
</svg>
