<svg width="132" height="36" viewBox="0 0 132 36" fill="none" xmlns="http://www.w3.org/2000/svg">
<path d="M94.8568 27.4964L94.8562 27.4971L91.6906 31.2992L91.6903 31.2995C90.2542 33.0234 88.1334 34.0227 85.8932 34.0227H41.8882C39.0708 34.0227 37.5901 30.7289 39.365 28.5969L39.3651 28.5968L54.7454 10.1254H43.3332C41.7607 10.1254 40.9401 8.29461 41.9255 7.11294L41.925 7.11349L43.0777 8.07327L41.9266 7.11163L94.8568 27.4964ZM94.8568 27.4964C95.934 26.2011 95.0471 24.1776 93.3062 24.1776M94.8568 27.4964L93.3062 24.1776M93.3062 24.1776H57.3075H93.3062ZM44.7246 3.75105L45.8777 4.71045L44.7249 3.75067C44.7249 3.75069 44.7249 3.75072 44.7249 3.75075C44.7248 3.75085 44.7247 3.75095 44.7246 3.75105ZM72.1814 6.36055L72.1815 6.3605L71.0405 5.40798L72.1814 6.36055ZM43.8669 7.12543H43.3332C43.501 7.12543 43.655 7.15776 43.7923 7.21509L43.8669 7.12543ZM44.4515 8.62543C44.4083 8.76819 44.3357 8.90664 44.2305 9.03306L44.5699 8.62543H44.4515Z" fill="#69A7CA" stroke="#69A7CA" stroke-width="3"/>
<path d="M82.3811 7.58679L84.8297 4.64638L84.8298 4.64617C85.853 3.41758 85.0096 1.5 83.3601 1.5H77.5689C75.4627 1.5 73.4682 2.43938 72.1185 4.0607C72.1185 4.06074 72.1185 4.06079 72.1184 4.06084L70.1919 6.3747C70.1917 6.37491 70.1916 6.37511 70.1914 6.37532C70.1913 6.37543 70.1912 6.37554 70.1911 6.37565C68.9673 7.84455 69.9826 10.1254 71.9398 10.1254H76.9778C79.0653 10.1254 81.0428 9.19421 82.381 7.5869C82.381 7.58687 82.3811 7.58683 82.3811 7.58679Z" fill="#69A7CA" stroke="#69A7CA" stroke-width="3"/>
<path d="M65.8376 11.6035L65.8376 11.6035L56.8564 22.3889L56.8563 22.389C55.6932 23.786 56.6565 25.9588 58.5223 25.9588H65.0077C66.3253 25.9588 67.5723 25.3715 68.4154 24.3585C68.4155 24.3583 68.4156 24.3582 68.4157 24.3581L79.1302 11.4913L79.1314 11.4898C80.1497 10.2637 79.3138 8.34427 77.6605 8.34427H72.7742C70.0945 8.34427 67.556 9.53983 65.8376 11.6035Z" fill="#69A7CA" stroke="#69A7CA" stroke-width="3"/>
<path d="M100.79 7.71603L100.79 7.71602L103.346 4.64638C103.346 4.64626 103.346 4.64615 103.346 4.64604C104.369 3.41745 103.526 1.5 101.876 1.5H89.7116C87.0265 1.5 84.4814 2.69786 82.7588 4.76656L82.7587 4.76658L80.8222 7.09222C80.8221 7.09241 80.8219 7.09259 80.8218 7.09278C80.8217 7.09285 80.8216 7.09292 80.8216 7.09299C79.8354 8.27699 80.6481 10.1254 82.2386 10.1254H95.6617C97.644 10.1254 99.5201 9.24157 100.79 7.71603ZM101.041 2.72624L101.04 2.72657L101.041 2.72624Z" fill="#69A7CA" stroke="#69A7CA" stroke-width="3"/>
<path d="M94.2339 16.3316C93.7131 16.355 93.2023 16.4449 92.7125 16.5961C92.8828 17.1403 93.2615 17.6159 93.7906 17.8818L94.2339 16.3316ZM94.2339 16.3316C94.3012 16.4279 94.394 16.5067 94.5064 16.5549C94.5835 16.588 94.6698 16.6067 94.7634 16.6067H105.087H105.089H105.139H106.704L106.043 17.401L94.2339 16.3316ZM100.421 5.79129L100.421 5.79156L129.053 4.6484L127.902 3.68631L129.055 4.64613L129.054 4.6469C130.083 3.41335 129.228 1.5 127.585 1.5H109.554C106.027 1.5 102.685 3.07352 100.421 5.79129ZM125.492 8.9248L124.339 7.9653L125.492 8.92512C125.492 8.92501 125.492 8.92491 125.492 8.9248ZM123.468 10.0816C123.388 9.69266 123.204 9.32783 122.936 9.03383C122.79 8.87399 122.62 8.73508 122.427 8.62461H121.346H109.281C108.911 8.62461 108.56 8.78985 108.323 9.07533L107.683 9.84344H109.245H109.246H109.281H121.346C121.581 9.84344 121.772 9.95862 121.888 10.1246H122.936C123.116 10.1246 123.294 10.11 123.468 10.0816ZM127.224 4.5H127.585C127.47 4.5 127.362 4.48382 127.263 4.45414L127.224 4.5ZM126.582 3C126.622 2.90464 126.678 2.81251 126.749 2.72649L126.521 3L126.582 3ZM89.8167 18.5286C89.8166 18.5288 89.8164 18.529 89.8163 18.5291L86.6162 22.3716L86.6155 22.3725C85.4489 23.7754 86.4139 25.9587 88.2894 25.9587H104.131C106.239 25.9587 108.187 25.8054 109.99 25.1716C111.832 24.5241 113.432 23.4092 114.908 21.6361L114.908 21.6361L123.008 11.9081L89.8167 18.5286Z" fill="#69A7CA" stroke="#69A7CA" stroke-width="3"/>
<path d="M105.91 32.4207L110.306 27.1414C110.306 27.1414 110.306 27.1413 110.306 27.1413C111.27 25.9828 110.473 24.1784 108.921 24.1784H106.767C105.565 24.1784 104.428 24.714 103.659 25.6381C103.659 25.6382 103.659 25.6383 103.659 25.6384C103.659 25.6385 103.658 25.6387 103.658 25.6389L99.144 31.0606L99.1438 31.0609C98.1846 32.2136 98.9702 34.0235 100.529 34.0235H102.497C103.818 34.0235 105.066 33.4338 105.91 32.4213L105.91 32.4207Z" fill="#69A7CA" stroke="#69A7CA" stroke-width="3"/>
<path d="M100.907 32.4207L105.303 27.1414C105.303 27.1414 105.303 27.1413 105.303 27.1413C106.265 25.9857 105.475 24.1784 103.918 24.1784H101.764C100.562 24.1784 99.4245 24.714 98.6558 25.6381C98.6557 25.6382 98.6555 25.6384 98.6554 25.6386C98.6553 25.6387 98.6552 25.6388 98.6551 25.6389L94.1409 31.0606L94.1406 31.0609C93.1814 32.2136 93.967 34.0235 95.5255 34.0235H97.4935C98.8146 34.0235 100.063 33.4338 100.906 32.4213L100.907 32.4207Z" fill="#69A7CA" stroke="#69A7CA" stroke-width="3"/>
<path d="M95.9047 32.4207L100.3 27.1414C100.3 27.1414 100.3 27.1413 100.3 27.1413C101.263 25.9858 100.473 24.1784 98.9158 24.1784H96.7613C95.56 24.1784 94.4223 24.714 93.6536 25.6381C93.6535 25.6382 93.6534 25.6383 93.6533 25.6384C93.6532 25.6386 93.653 25.6387 93.6529 25.6389L89.1387 31.0606L89.1384 31.0609C88.1792 32.2136 88.9648 34.0235 90.5233 34.0235H92.4913C93.8113 34.0235 95.0602 33.4339 95.9042 32.4213L95.9047 32.4207Z" fill="#69A7CA" stroke="#69A7CA" stroke-width="3"/>
<path d="M95.0907 14.5603L95.0907 14.5603L97.6463 11.4906C98.6697 10.2621 97.8263 8.34427 96.1767 8.34427H84.0121C81.327 8.34427 78.7819 9.54212 77.0593 11.6108C77.0592 11.6108 77.0592 11.6108 77.0592 11.6108L75.2405 13.7949L75.2404 13.795L72.734 16.8052L72.734 16.8053L67.9653 22.5329L67.9652 22.533C66.8494 23.8734 67.7726 25.9588 69.564 25.9588H81.1983C83.9904 25.9588 86.637 24.7136 88.4279 22.5619L91.7831 18.5326L91.7832 18.5324C92.2694 17.9484 92.3685 17.2228 92.1772 16.5901C93.3 16.1935 94.3098 15.4982 95.0907 14.5603ZM95.341 9.57084L95.3403 9.57164C95.3406 9.57126 95.3409 9.57088 95.3413 9.57051L95.341 9.57084Z" fill="#69A7CA" stroke="#69A7CA" stroke-width="3"/>
<path d="M17.2065 6.41329L7.22155 18.406L7.22146 18.4061L4.26999 21.9504L4.26996 21.9504L5.42266 22.9103C4.26996 21.9504 4.26955 21.9509 4.26911 21.9515L4.26808 21.9527L4.26546 21.9558L4.25807 21.9648L4.23491 21.9932C4.21586 22.0167 4.18972 22.0493 4.15739 22.0903C4.09278 22.1724 4.00316 22.2888 3.89589 22.4346C3.68205 22.7254 3.39436 23.1385 3.09355 23.6351C2.50941 24.5994 1.80004 26.001 1.57375 27.4913C1.33832 29.0417 1.62062 30.8421 3.23551 32.1769C4.73119 33.4132 7.11851 34.0227 10.5076 34.0227H15.4482H16.7951H32.204C34.9336 34.0227 37.5209 32.8053 39.272 30.702L42.0839 27.3248C43.111 26.0918 42.2574 24.1784 40.6135 24.1784H22.4939H21.147H16.4151L19.6231 20.3257L26.3945 12.1932C26.3945 12.1931 26.3946 12.1931 26.3946 12.193C27.0877 11.3609 27.5457 10.8769 28.0215 10.5702C28.4366 10.3027 28.9393 10.1254 29.7949 10.1254H38.1388C40.1419 10.1254 42.0394 9.23183 43.3227 7.68949L45.857 4.6462L45.8585 4.64434C46.8779 3.41628 46.0361 1.5 44.3865 1.5H28.2486C25.0191 1.5 22.8386 1.90903 21.1219 2.82286C19.4575 3.70883 18.3811 5.00209 17.2856 6.31831C17.2592 6.34992 17.2329 6.38155 17.2066 6.41319L17.2065 6.41329ZM39.7786 25.4049L39.7777 25.4061C39.7781 25.4056 39.7785 25.4051 39.7789 25.4046L39.7786 25.4049ZM14.5547 24.0686L18.4703 19.3658L25.2419 11.2332C26.6187 9.58004 27.5926 8.62543 29.7949 8.62543H38.1388C39.694 8.62543 41.1698 7.93176 42.1696 6.73011L14.5547 24.0686Z" fill="#69A7CA" stroke="#69A7CA" stroke-width="3"/>
<path d="M16.0697 22.4175L16.0695 22.4177C14.9172 23.8021 15.8681 25.9596 17.7219 25.9596H36.817C40.8887 25.9596 44.749 24.1433 47.3628 21.0038C47.3629 21.0038 47.3629 21.0037 47.3629 21.0037L55.0174 11.811L55.0175 11.8109C56.1454 10.4562 55.2141 8.34506 53.4001 8.34506L31.1125 8.34506C31.1124 8.34506 31.1123 8.34506 31.1122 8.34506C31.1121 8.34506 31.1119 8.34506 31.1118 8.34506C29.002 8.34424 27.0044 9.28553 25.6526 10.9098C25.6525 10.9099 25.6523 10.91 25.6522 10.9101L16.0697 22.4175Z" fill="#69A7CA" stroke="#69A7CA" stroke-width="3"/>
<path d="M93.7035 26.5373C93.9865 26.197 93.7473 25.6776 93.3062 25.6776H55.6511C55.0381 25.6776 54.7048 24.9545 55.0997 24.4817L71.03 5.39921C71.8222 4.45032 71.1532 3 69.9232 3H49.516C48.1124 3 46.7802 3.62577 45.8777 4.71045L43.0777 8.07327C42.8953 8.29168 43.0502 8.62543 43.3332 8.62543H55.9916C56.766 8.62543 57.1877 9.53751 56.689 10.1355L40.5178 29.5566C39.5399 30.7312 40.3678 32.5227 41.8882 32.5227H85.8932C87.6852 32.5227 89.3848 31.7235 90.5379 30.3394L93.7035 26.5373Z" fill="white"/>
<path d="M71.9398 8.62543H76.9778C78.6173 8.62543 80.1734 7.89413 81.2283 6.62704L83.6772 3.68631C83.9034 3.41473 83.712 3 83.3601 3H77.5689C75.9107 3 74.3376 3.73948 73.2713 5.02047L71.3439 7.33543C70.9181 7.84587 71.2782 8.62543 71.9398 8.62543Z" fill="white"/>
<path d="M77.6605 9.84427H72.7742C70.5427 9.84427 68.4255 10.8398 66.9902 12.5633L58.0091 23.3487C57.6434 23.788 57.9531 24.4588 58.5223 24.4588H65.0077C65.8777 24.4588 66.7032 24.071 67.2627 23.3986L77.9775 10.5314C78.2037 10.259 78.0124 9.84427 77.6605 9.84427Z" fill="white"/>
<path d="M82.2386 8.62543H95.6617C97.1959 8.62543 98.6506 7.94157 99.6374 6.75628L102.193 3.68631C102.42 3.41473 102.228 3 101.876 3H89.7116C87.4744 3 85.3507 3.99797 83.9114 5.72641L81.9743 8.05282C81.7853 8.27941 81.9451 8.62543 82.2386 8.62543Z" fill="white"/>
<path d="M127.585 3H109.554C106.476 3 103.555 4.37343 101.574 6.75138L94.2655 15.5286C93.9104 15.9556 94.2112 16.6067 94.7634 16.6067H106.704L106.043 17.401C105.819 17.6701 105.488 17.8255 105.139 17.8255H94.5064C93.1417 17.8255 91.8467 18.4341 90.9693 19.4885L87.7689 23.3315C87.3975 23.7782 87.7121 24.4587 88.2894 24.4587H104.131C108.236 24.4587 111.115 23.8469 113.756 20.6763L121.856 10.9477C122.22 10.5109 121.912 9.84344 121.346 9.84344H107.683L108.323 9.07533C108.56 8.78985 108.911 8.62461 109.281 8.62461H122.936C123.477 8.62461 123.991 8.3833 124.339 7.9653L127.902 3.68631C128.129 3.41473 127.937 3 127.585 3Z" fill="white"/>
<path d="M26.8052 11.8696L17.2224 23.3773C16.8656 23.806 17.1673 24.4596 17.7219 24.4596H36.817C40.4408 24.4596 43.8797 22.8432 46.2101 20.044L53.8647 10.8512C54.1964 10.4528 53.9158 9.84506 53.4001 9.84506H31.1118C29.4503 9.84424 27.874 10.5854 26.8052 11.8696ZM31.2447 17.2071L31.8837 16.4398C31.9907 16.3114 32.148 16.237 32.3143 16.237H38.6731C38.7282 16.237 38.7582 16.3024 38.7226 16.3449L38.0804 17.1155C37.9733 17.2439 37.816 17.3184 37.6498 17.3184H31.2958C31.2391 17.3184 31.2074 17.2513 31.2447 17.2071Z" fill="white"/>
<path d="M108.921 25.6784H106.767C106.013 25.6784 105.297 26.0146 104.812 26.5978L100.297 32.0204C100.131 32.2192 100.272 32.5235 100.529 32.5235H102.497C103.369 32.5235 104.196 32.1341 104.757 31.4609L109.153 26.1815C109.319 25.9819 109.178 25.6784 108.921 25.6784Z" fill="white"/>
<path d="M103.918 25.6784H101.764C101.009 25.6784 100.293 26.0146 99.8085 26.5978L95.2936 32.0204C95.1282 32.2192 95.2685 32.5235 95.5255 32.5235H97.4935C98.366 32.5235 99.1931 32.1341 99.7542 31.4609L104.15 26.1815C104.316 25.9819 104.176 25.6784 103.918 25.6784Z" fill="white"/>
<path d="M98.9158 25.6784H96.7613C96.0072 25.6784 95.2912 26.0146 94.8063 26.5978L90.2914 32.0204C90.126 32.2192 90.2663 32.5235 90.5233 32.5235H92.4913C93.363 32.5235 94.1909 32.1341 94.752 31.4609L99.1477 26.1815C99.3139 25.9819 99.1737 25.6784 98.9158 25.6784Z" fill="white"/>
<path d="M89.9622 15.4697C91.4964 15.4697 92.9511 14.7858 93.9379 13.6006L96.4938 10.5306C96.72 10.259 96.5286 9.84427 96.1767 9.84427H84.0121C81.7749 9.84427 79.6512 10.8422 78.2119 12.5707L76.3931 14.7548L73.8868 17.765L69.118 23.4927C68.7994 23.8755 69.0694 24.4588 69.564 24.4588H81.1983C83.5426 24.4588 85.7676 23.4134 87.275 21.6023L90.6304 17.5728C90.949 17.19 90.679 16.6067 90.1844 16.6067H83.4039L84.3502 15.4697H89.9622Z" fill="white"/>
<path d="M40.6135 25.6784H22.4939H21.147H15.2982C14.4728 25.6784 14.0235 24.7058 14.5547 24.0686L18.4703 19.3658L25.2419 11.2332C26.6187 9.58004 27.5926 8.62543 29.7949 8.62543H38.1388C39.694 8.62543 41.1698 7.93176 42.1696 6.73011L44.7043 3.68631C44.9298 3.41473 44.7384 3 44.3865 3H28.2486C22.0009 3 20.6678 4.60084 18.3592 7.37306L8.37422 19.3658L5.42266 22.9103C5.42266 22.9103 -2.58142 32.5227 10.5076 32.5227H15.4482H16.7951H32.204C34.4858 32.5227 36.6516 31.5051 38.1193 29.7423L40.9314 26.3647C41.1576 26.0931 40.9654 25.6784 40.6135 25.6784Z" fill="white"/>
</svg>
