<svg width="84" height="84" viewBox="0 0 84 84" fill="none" xmlns="http://www.w3.org/2000/svg">
<path d="M1 41.8853C1.06819 36.2137 1.10546 30.5426 1.21613 24.8725C1.27948 21.626 1.40134 18.3734 2.21333 15.201C4.11381 7.77486 8.93731 3.42946 16.3976 2.07576C19.0434 1.59547 21.7674 1.39984 24.4605 1.35215C32.1281 1.21577 39.7982 1.18075 47.4672 1.1882C52.2087 1.19304 56.951 1.316 61.6914 1.44791C64.9099 1.53734 68.0889 1.95913 71.1059 3.16938C76.4786 5.32494 79.7594 9.31525 81.2481 14.85C81.8537 17.1017 82.1656 19.406 82.2032 21.7273C82.3303 29.5362 82.4316 37.3457 82.4745 45.1553C82.4995 49.7157 82.4309 54.2776 82.3344 58.8376C82.2651 62.1241 82.1533 65.4172 81.3226 68.6284C79.4158 75.9998 74.6158 80.321 67.2125 81.6858C64.5682 82.1732 61.8434 82.3685 59.1503 82.4169C51.4627 82.5544 43.7724 82.5894 36.0833 82.582C31.3418 82.5775 26.5995 82.4542 21.8595 82.3223C18.6615 82.2332 15.5037 81.8155 12.502 80.6228C7.07484 78.4661 3.77694 74.4493 2.28935 68.8624C1.4196 65.5953 1.28358 62.2456 1.21688 58.8984C1.10322 53.228 1.06782 47.5564 1 41.8853ZM67.2207 41.8644C67.2162 27.8035 55.8357 16.4336 41.7698 16.4374C27.7029 16.4411 16.3313 27.8113 16.3295 41.8752C16.3276 55.9473 27.6794 67.3157 41.7505 67.3328C55.8383 67.3496 67.2251 55.9641 67.2207 41.8644ZM74.1362 15.5278C74.1671 12.2227 71.5869 9.56787 68.3006 9.52353C64.9893 9.47882 62.2902 12.1072 62.2619 15.4045C62.234 18.6566 64.8883 21.3588 68.1478 21.3972C71.4122 21.4352 74.1053 18.796 74.1362 15.5278Z" fill="#F9DBD2" stroke="#69A7CA" stroke-width="2" stroke-linejoin="round"/>
<path d="M58.36 41.9223C58.306 51.1608 50.8486 58.5244 41.6033 58.4685C32.4896 58.4134 25.1485 50.9108 25.1928 41.6972C25.2364 32.6059 32.7698 25.2483 41.9797 25.3023C50.9951 25.3548 58.4129 32.8816 58.36 41.9223Z" fill="#F9DBD2" stroke="#69A7CA" stroke-width="2" stroke-linejoin="round"/>
</svg>
