<svg width="107" height="89" viewBox="0 0 107 89" fill="none" xmlns="http://www.w3.org/2000/svg">
<path d="M38.8465 87.1873H34.4584C34.336 87.1578 34.2112 87.1357 34.0864 87.1234C31.502 87.0226 28.9274 86.7398 26.3822 86.2751C18.9668 84.9573 11.8769 82.2085 5.50403 78.1812C5.3988 78.1173 5.23972 78.0804 5.24462 77.8665C16.0104 79.0811 26.8227 76.0422 35.3982 69.389C35.1608 69.2882 34.9038 69.2366 34.6444 69.2415C33.619 69.1997 32.5984 69.0571 31.5975 68.8211C24.5712 67.3385 18.8322 62.2712 16.4681 55.4607C16.2625 54.9247 16.3286 54.8558 16.8792 54.9468C19.5909 55.3943 22.3661 55.2861 25.0362 54.6297C25.1316 54.6075 25.2491 54.61 25.3176 54.4895L25.0949 54.4256C17.31 52.707 11.2332 46.5898 9.53724 38.7639C9.17993 37.3378 9.01106 35.87 9.04043 34.3973C9.04043 34.0604 9.14811 33.9424 9.46626 34.1145C9.56416 34.1711 9.66694 34.2153 9.76728 34.267C11.9772 35.4004 14.3732 36.1184 16.8425 36.3814C17.261 36.4257 17.6868 36.4429 18.1053 36.4724C18.0246 36.32 17.9047 36.1921 17.7627 36.0962C15.7437 34.6481 14.0085 32.836 12.6453 30.7535C10.0145 26.8049 8.82996 22.0646 9.2925 17.3366C9.53968 14.5559 10.3522 11.8562 11.6786 9.40249C11.9944 8.81241 12.0139 8.81241 12.4251 9.30906C14.2288 11.4948 16.1915 13.5453 18.2962 15.441C22.5986 19.3281 27.4492 22.5588 32.6914 25.0224C36.7369 26.918 40.983 28.3465 45.349 29.2783C48.2124 29.8783 51.1125 30.2716 54.0322 30.4536C54.4629 30.4806 54.5094 30.4315 54.4066 29.9619C54.0052 28.0638 53.8878 26.119 54.0542 24.1864C54.365 19.3232 56.4379 14.7403 59.8764 11.303C64.4969 6.42013 71.2344 4.16553 77.8471 5.29652C82.2303 5.93823 86.2757 8.01826 89.3569 11.2145C89.5576 11.4702 89.888 11.5809 90.2013 11.4973C93.0353 10.89 95.8008 9.99257 98.4512 8.81487C99.7752 8.22233 101.067 7.56095 102.325 6.83564C102.44 6.77172 102.575 6.6119 102.697 6.72008C102.82 6.82826 102.68 6.9807 102.643 7.11101C102.607 7.24132 102.553 7.37901 102.506 7.51177C100.977 11.6202 98.1918 15.1361 94.5502 17.5554C94.4156 17.6464 94.2443 17.6956 94.1684 17.8701C94.2785 17.9881 94.4107 17.9341 94.5257 17.9193C97.3401 17.5284 100.108 16.8473 102.783 15.8811C103.72 15.5393 104.648 15.173 105.578 14.8165V14.9001C105.473 15.0328 105.358 15.1582 105.262 15.2959C103.855 17.3415 102.274 19.2593 100.534 21.0295C99.0337 22.5588 97.4135 23.9652 95.6931 25.2388C95.4508 25.3617 95.3015 25.6125 95.3113 25.8854C95.3945 27.4368 95.3945 28.9882 95.3113 30.5396C95.2012 33.2491 94.8952 35.9462 94.396 38.609C93.209 45.0409 91.0113 51.2391 87.8836 56.9777C84.3301 63.5816 79.5505 69.4431 73.8017 74.24C70.0769 77.3477 65.9556 79.9441 61.5455 81.9577C55.0209 84.918 48.0068 86.6415 40.8606 87.0447C40.1852 87.0373 39.5121 87.0865 38.8465 87.1873Z" fill="#6CBDD7" stroke="#69A7CA" stroke-width="2" stroke-linejoin="round"/>
<path d="M35.0242 83.365H30.6361C30.5138 83.3355 30.389 83.3134 30.2641 83.3011C27.6798 83.2003 25.1052 82.9176 22.5599 82.4529C15.1445 81.135 8.05462 78.3862 1.68177 74.3589C1.57653 74.295 1.41746 74.2581 1.42235 74.0442C12.1882 75.2588 23.0005 72.2199 31.5759 65.5668C31.3385 65.466 31.0816 65.4143 30.8221 65.4192C29.7967 65.3774 28.7762 65.2348 27.7752 64.9988C20.7489 63.5162 15.0099 58.4489 12.6458 51.6384C12.4402 51.1024 12.5063 51.0336 13.057 51.1245C15.7686 51.572 18.5439 51.4638 21.2139 50.8074C21.3094 50.7853 21.4268 50.7877 21.4954 50.6672L21.2727 50.6033C13.4877 48.8847 7.41097 42.7675 5.71497 34.9416C5.35766 33.5156 5.18879 32.0478 5.21816 30.575C5.21816 30.2382 5.32584 30.1202 5.644 30.2923C5.74189 30.3488 5.84468 30.3931 5.94502 30.4447C8.15496 31.5782 10.5509 32.2961 13.0203 32.5592C13.4387 32.6034 13.8646 32.6206 14.2831 32.6501C14.2023 32.4977 14.0824 32.3698 13.9404 32.274C11.9214 30.8258 10.1862 29.0138 8.82308 26.9313C6.1922 22.9827 5.00769 18.2424 5.47024 13.5143C5.71742 10.7336 6.52993 8.03397 7.85638 5.58022C8.17209 4.99014 8.19167 4.99014 8.60282 5.48679C10.4065 7.67255 12.3693 9.72307 14.474 11.6187C18.7764 15.5059 23.627 18.7365 28.8692 21.2001C32.9146 23.0958 37.1607 24.5242 41.5268 25.4561C44.3901 26.056 47.2902 26.4494 50.2099 26.6313C50.6406 26.6584 50.6871 26.6092 50.5843 26.1396C50.183 24.2415 50.0655 22.2967 50.2319 20.3642C50.5427 15.5009 52.6156 10.918 56.0541 7.48077C60.6747 2.59786 67.4122 0.343264 74.0249 1.47425C78.408 2.11596 82.4535 4.19599 85.5347 7.39226C85.7353 7.64796 86.0657 7.7586 86.379 7.67501C89.213 7.06772 91.9785 6.1703 94.629 4.9926C95.953 4.40006 97.2451 3.73868 98.5031 3.01337C98.6181 2.94945 98.7527 2.78964 98.8751 2.89782C98.9974 3.006 98.8579 3.15844 98.8212 3.28875C98.7845 3.41905 98.7307 3.55674 98.6842 3.68951C97.1546 7.79794 94.3695 11.3138 90.7279 13.7332C90.5933 13.8241 90.422 13.8733 90.3461 14.0479C90.4563 14.1659 90.5884 14.1118 90.7034 14.097C93.5179 13.7061 96.2858 13.0251 98.9607 12.0588C99.898 11.7171 100.826 11.3507 101.756 10.9942V11.0778C101.65 11.2106 101.535 11.336 101.44 11.4736C100.033 13.5193 98.4517 15.437 96.7116 17.2073C95.2114 18.7365 93.5913 20.1429 91.8708 21.4165C91.6285 21.5394 91.4792 21.7902 91.489 22.0631C91.5722 23.6145 91.5722 25.166 91.489 26.7174C91.3789 29.4268 91.073 32.124 90.5737 34.7867C89.3868 41.2186 87.1891 47.4169 84.0614 53.1554C80.5079 59.7594 75.7282 65.6208 69.9794 70.4177C66.2546 73.5255 62.1333 76.1218 57.7232 78.1355C51.1986 81.0957 44.1846 82.8192 37.0384 83.2224C36.3629 83.2151 35.6899 83.2642 35.0242 83.365Z" fill="#92DCF3" stroke="#69A7CA" stroke-width="2" stroke-linejoin="round"/>
</svg>
