<svg width="1440" height="338" viewBox="0 0 1440 338" fill="none" xmlns="http://www.w3.org/2000/svg">
<path d="M1309.38 124.227C1363.88 80.7271 1413.49 176.13 1363.88 230.727C1284.38 305.727 1165.65 264.598 1236.88 230.727C1313.11 194.477 1254.88 167.727 1309.38 124.227Z" stroke="white" stroke-width="2"/>
<path d="M1528.5 7.68726C1038.5 -33.3127 1092.5 128.187 1145.5 114.341C1199.03 100.357 1222 169.187 1053 250.187C895.099 325.868 768.338 303.195 858.001 203.187C1053 -14.3127 668.464 -17.6597 480 186.341C340.5 337.341 179.71 377.342 233.516 292.802C303.5 182.842 66.8488 216.802 -27.4845 292.802" stroke="white" stroke-width="2"/>
</svg>
