<svg width="106" height="77" viewBox="0 0 106 77" fill="none" xmlns="http://www.w3.org/2000/svg">
<path d="M23.8327 18.151C23.963 18.1393 24.0863 18.0899 24.1886 18.01C27.35 16.3389 30.5951 14.8346 33.9099 13.502C37.9785 11.9178 42.2099 10.8085 46.5274 10.1927C48.5396 9.90121 50.5658 9.71553 52.5966 9.63327C54.0412 9.57686 55.502 9.48989 56.9559 9.52515C59.1728 9.57921 61.3897 9.66617 63.5996 9.88946C68.1335 10.3384 72.5975 11.3255 76.9034 12.8298C79.2156 13.6524 81.4837 14.5949 83.7006 15.6526C85.308 16.407 86.8829 17.232 88.4717 18.0264C88.5787 18.0875 88.6997 18.1181 88.8206 18.1134C88.374 17.7138 87.939 17.3025 87.4807 16.9147C86.1222 15.7677 84.7497 14.6325 83.2842 13.6265C81.5651 12.4443 79.7507 11.4078 77.8618 10.5264C74.9261 9.19375 71.874 8.13843 68.7429 7.37926C68.3707 7.28525 68.3614 7.26409 68.5336 6.91624C68.7522 6.46967 68.9756 6.02545 69.1942 5.57888C69.4361 5.09235 69.4361 5.09235 69.9758 5.13936C71.4669 5.29213 72.9464 5.54127 74.405 5.88443C78.0153 6.76347 81.5046 8.09377 84.7916 9.8401C86.9806 10.9777 89.0835 12.2798 91.0794 13.7347C91.2469 13.8569 91.3911 14.012 91.5005 14.1906C92.7148 16.1508 93.7964 18.1886 94.7386 20.2945C96.2832 23.6673 97.6184 27.1318 98.7443 30.6714C100.045 34.7329 101.117 38.8648 101.959 43.0461C102.555 45.9676 103.05 48.9079 103.446 51.867C103.722 53.9354 103.953 56.0084 104.134 58.0908C104.258 59.4869 104.376 60.8854 104.453 62.2839C104.472 62.5048 104.395 62.7234 104.244 62.8856C102.611 64.733 100.794 66.4088 98.8234 67.8848C95.783 70.1388 92.4379 71.9368 88.8881 73.2272C85.8849 74.3366 82.7724 75.1192 79.6064 75.5611C78.5154 75.7327 77.4151 75.8338 76.3102 75.8596C76.1124 75.8761 75.9194 75.7821 75.81 75.6152C74.7516 74.1791 73.6839 72.7501 72.6231 71.3163C72.43 71.0555 72.4579 71.0038 72.865 70.8627C74.7655 70.1811 76.6172 69.3679 78.4061 68.4277C81.2674 66.9353 83.9565 65.1278 86.4246 63.0407C88.053 61.6493 89.5836 60.145 91.0026 58.5374C91.0352 58.488 91.0655 58.434 91.091 58.3799L89.8651 59.2637C85.4709 62.4249 80.6067 64.8599 75.4564 66.4769C72.2997 67.4688 69.064 68.181 65.784 68.604C64.1137 68.8226 62.4388 68.966 60.7593 69.0905C58.3098 69.2668 55.8603 69.2363 53.4131 69.1775C51.6358 69.1329 49.8586 68.9683 48.0883 68.7615C43.8662 68.2891 39.7069 67.3536 35.6872 65.9693C32.3537 64.8082 29.1481 63.2992 26.1264 61.466C24.6818 60.5846 23.2628 59.628 21.895 58.615C21.8112 58.5444 21.7112 58.4927 21.6042 58.4669C21.8089 58.7113 22.0066 58.9534 22.2183 59.1743C24.4585 61.6211 26.9638 63.8046 29.6878 65.6825C32.805 67.8237 36.178 69.5536 39.7278 70.8322L39.8511 70.8745C40.2047 71.0108 40.221 71.0555 39.9977 71.361L37.8506 74.2543C37.5226 74.6962 37.1853 75.1333 36.8689 75.5846C36.7503 75.7727 36.5363 75.8784 36.3176 75.8573C34.766 75.7962 33.2214 75.6246 31.693 75.3425C28.0641 74.7291 24.5236 73.6597 21.1552 72.1601C17.9031 70.7217 14.8674 68.8273 12.1387 66.531C10.8198 65.3981 9.57523 64.1783 8.41677 62.8785C8.26091 62.7211 8.18182 62.5025 8.20043 62.2792C8.27254 61.2333 8.32372 60.185 8.41677 59.1414C8.54471 57.7124 8.70755 56.2881 8.84945 54.8591C9.02392 53.108 9.26817 51.3711 9.52638 49.6342C10.1382 45.514 10.957 41.4267 11.9759 37.3888C13.2228 32.3919 14.8441 27.4961 16.8261 22.746C17.9776 19.9866 19.3012 17.3049 20.7923 14.7124C21.3087 13.9438 21.9927 13.3069 22.7929 12.8509C25.7263 10.832 28.8736 9.15144 32.1769 7.83993C35.3662 6.53783 38.7066 5.65409 42.1192 5.20517C43.4266 5.043 43.0823 4.84791 43.6848 6.03015C43.8313 6.31455 43.9709 6.60129 44.1105 6.89039C44.2826 7.24059 44.271 7.26879 43.9058 7.35106C42.4309 7.68951 40.9794 8.10553 39.5464 8.58735C35.3406 9.99287 31.3883 12.0753 27.8408 14.7547C26.5055 15.7607 25.2378 16.8442 23.9862 17.9442C23.9071 18.017 23.8304 18.0499 23.8327 18.151ZM34.4333 44.917C34.4194 45.6926 34.5078 46.4659 34.7009 47.2157C35.1777 49.6271 36.6851 51.7025 38.8183 52.8871C40.998 54.1775 43.7197 54.0717 45.7923 52.6121C48.4349 50.854 49.933 47.7939 49.712 44.6044C49.6981 43.3634 49.4306 42.1365 48.9258 41.0036C48.1977 39.168 46.8252 37.6685 45.0712 36.7918C42.1262 35.3581 38.5926 36.1924 36.5805 38.7919C35.1731 40.5124 34.4147 42.6818 34.4426 44.9147H34.4333V44.917ZM78.1735 44.9546C78.1828 44.0803 78.0711 43.2106 77.8432 42.3669C77.3197 40.1199 75.9054 38.1902 73.9328 37.0245C70.9575 35.304 67.182 36.042 65.0582 38.7614C63.467 40.6722 62.6994 43.1472 62.9274 45.6315C63.0297 47.9325 64.0067 50.1066 65.6537 51.6978C67.075 53.1527 69.064 53.8907 71.0808 53.7097C72.8487 53.5781 74.4957 52.7649 75.6867 51.4393C77.3197 49.6859 78.2153 47.3614 78.1851 44.9546H78.1735Z" fill="#C5A9E1" stroke="#69A7CA" stroke-width="2" stroke-linejoin="round"/>
<path d="M17.0153 14.2553C17.1456 14.2435 17.2689 14.1941 17.3712 14.1142C20.5326 12.4431 23.7777 10.9389 27.0926 9.60622C31.1611 8.02207 35.3926 6.9127 39.71 6.2969C41.7222 6.00546 43.7484 5.81978 45.7792 5.73751C47.2238 5.68111 48.6846 5.59414 50.1385 5.6294C52.3554 5.68346 54.5723 5.77042 56.7823 5.9937C61.3161 6.44263 65.7801 7.42978 70.086 8.93402C72.3982 9.75665 74.6663 10.6991 76.8832 11.7568C78.4906 12.5113 80.0655 13.3363 81.6543 14.1307C81.7613 14.1918 81.8823 14.2223 82.0033 14.2176C81.5566 13.8181 81.1216 13.4068 80.6633 13.019C79.3048 11.872 77.9324 10.7367 76.4668 9.73079C74.7477 8.54855 72.9333 7.51204 71.0444 6.63065C68.1087 5.298 65.0567 4.24268 61.9255 3.48351C61.5533 3.3895 61.544 3.36834 61.7162 3.02049C61.9349 2.57392 62.1582 2.1297 62.3768 1.68313C62.6188 1.1966 62.6188 1.1966 63.1585 1.24361C64.6496 1.39638 66.1291 1.64552 67.5876 1.98868C71.1979 2.86771 74.6873 4.19802 77.9742 5.94435C80.1632 7.08192 82.2661 8.38403 84.262 9.83891C84.4295 9.96113 84.5737 10.1163 84.6831 10.2949C85.8974 12.2551 86.9791 14.2929 87.9212 16.3988C89.4658 19.7716 90.8011 23.236 91.927 26.7757C93.2273 30.8371 94.2997 34.9691 95.1418 39.1504C95.7373 42.0719 96.2328 45.0122 96.6283 47.9713C96.9051 50.0396 97.1354 52.1126 97.3168 54.1951C97.4401 55.5912 97.5588 56.9897 97.6355 58.3881C97.6541 58.6091 97.5774 58.8276 97.4262 58.9898C95.7932 60.8372 93.9764 62.513 92.0061 63.9891C88.9657 66.2431 85.6205 68.0411 82.0707 69.3315C79.0676 70.4408 75.9551 71.2235 72.789 71.6654C71.6981 71.8369 70.5977 71.938 69.4928 71.9639C69.295 71.9803 69.102 71.8863 68.9926 71.7194C67.9342 70.2833 66.8665 68.8543 65.8057 67.4206C65.6126 67.1597 65.6405 67.108 66.0476 66.967C67.9482 66.2854 69.7998 65.4721 71.5887 64.532C74.45 63.0395 77.1391 61.2321 79.6072 59.145C81.2356 57.7535 82.7663 56.2493 84.1853 54.6416C84.2178 54.5923 84.2481 54.5382 84.2737 54.4842L83.0477 55.3679C78.6535 58.5292 73.7893 60.9641 68.6391 62.5812C65.4824 63.573 62.2466 64.2852 58.9666 64.7083C57.2964 64.9269 55.6215 65.0702 53.9419 65.1948C51.4924 65.3711 49.0429 65.3405 46.5957 65.2818C44.8184 65.2371 43.0412 65.0726 41.2709 64.8657C37.0488 64.3933 32.8895 63.4579 28.8698 62.0735C25.5363 60.9124 22.3308 59.4035 19.309 57.5702C17.8644 56.6888 16.4454 55.7322 15.0776 54.7192C14.9938 54.6487 14.8938 54.597 14.7868 54.5711C14.9915 54.8156 15.1892 55.0577 15.4009 55.2786C17.6411 57.7253 20.1464 59.9088 22.8704 61.7868C25.9876 63.9279 29.3606 65.6578 32.9105 66.9364L33.0338 66.9787C33.3873 67.1151 33.4036 67.1597 33.1803 67.4653L31.0332 70.3586C30.7052 70.8004 30.3679 71.2376 30.0515 71.6889C29.9329 71.8769 29.7189 71.9827 29.5002 71.9615C27.9486 71.9004 26.404 71.7288 24.8757 71.4468C21.2467 70.8333 17.7062 69.7639 14.3378 68.2644C11.0858 66.826 8.05003 64.9316 5.32136 62.6353C4.00238 61.5024 2.75785 60.2825 1.59939 58.9828C1.44353 58.8253 1.36444 58.6067 1.38305 58.3834C1.45516 57.3375 1.50634 56.2893 1.59939 55.2457C1.72733 53.8167 1.89017 52.3923 2.03207 50.9633C2.20653 49.2123 2.45079 47.4754 2.709 45.7384C3.3208 41.6182 4.13963 37.531 5.15852 33.493C6.40538 28.4961 8.02677 23.6003 10.0087 18.8502C11.1602 16.0909 12.4838 13.4091 13.9749 10.8167C14.4914 10.0481 15.1753 9.41114 15.9755 8.95517C18.9089 6.9362 22.0563 5.25569 25.3595 3.94418C28.5488 2.64208 31.8893 1.75834 35.3018 1.30942C36.6092 1.14724 36.2649 0.952163 36.8674 2.1344C37.0139 2.41879 37.1535 2.70554 37.2931 2.99463C37.4652 3.34484 37.4536 3.37304 37.0884 3.45531C35.6135 3.79376 34.162 4.20977 32.729 4.6916C28.5232 6.09712 24.5709 8.17955 21.0234 10.859C19.6882 11.8649 18.4204 12.9484 17.1689 14.0484C17.0898 14.1213 17.013 14.1542 17.0153 14.2553ZM27.616 41.0213C27.602 41.7969 27.6904 42.5701 27.8835 43.3199C28.3604 45.7314 29.8678 47.8068 32.0009 48.9914C34.1806 50.2817 36.9023 50.1759 38.975 48.7164C41.6175 46.9583 43.1156 43.8981 42.8947 40.7087C42.8807 39.4677 42.6132 38.2408 42.1084 37.1079C41.3803 35.2723 40.0078 33.7727 38.2538 32.896C35.3088 31.4623 31.7753 32.2967 29.7631 34.8962C28.3557 36.6167 27.5974 38.7861 27.6253 41.0189H27.616V41.0213ZM71.3561 41.0589C71.3654 40.1845 71.2537 39.3149 71.0258 38.4711C70.5024 36.2242 69.088 34.2945 67.1154 33.1287C64.1401 31.4082 60.3647 32.1463 58.2408 34.8656C56.6497 36.7765 55.882 39.2514 56.11 41.7358C56.2123 44.0368 57.1893 46.2109 58.8363 47.8021C60.2576 49.2569 62.2466 49.995 64.2634 49.814C66.0313 49.6824 67.6783 48.8691 68.8693 47.5435C70.5024 45.7902 71.398 43.4656 71.3677 41.0589H71.3561Z" fill="#E3CFF7" stroke="#69A7CA" stroke-width="2" stroke-linejoin="round"/>
</svg>
