<svg width="29" height="27" viewBox="0 0 29 27" fill="none" xmlns="http://www.w3.org/2000/svg">
<path d="M27.0131 13.9875C26.9125 13.6735 26.8608 13.3677 27.0774 13.0736C27.1214 13.0139 27.13 12.9252 27.1466 12.8478C27.6408 10.5549 28.1346 8.26193 28.6271 5.96899C28.7538 5.37947 28.8751 4.78859 29 4.19364C28.9739 4.0932 28.9524 3.99366 28.9218 3.89684C28.5718 2.8015 28.2236 1.70616 27.8686 0.612621C27.6885 0.0601979 27.2958 -0.124396 26.748 0.0823671C24.0571 1.09899 21.3666 2.11697 18.6775 3.13811C18.4299 3.23222 18.1819 3.28108 17.9159 3.28063C15.6136 3.2761 13.3109 3.27656 11.0087 3.28018C10.7898 3.28063 10.585 3.24624 10.3792 3.16842C7.66892 2.14094 4.95687 1.11754 2.24527 0.093678C1.65712 -0.128015 1.29093 0.0493394 1.09234 0.658316C0.746369 1.71882 0.40624 2.78159 0.0589214 3.84165C-0.0107219 4.05429 -0.0170123 4.25743 0.0315134 4.47822C0.522162 6.70239 1.00427 8.92837 1.49133 11.1534C1.62522 11.7651 1.68363 12.4121 1.93076 12.9745C2.14867 13.4708 2.05252 13.8644 1.90784 14.3137C1.37271 15.971 0.852406 17.6332 0.322218 19.2923C0.257967 19.4941 0.23595 19.6868 0.296158 19.894C0.797141 21.6219 1.29183 23.3511 1.79282 25.0789C1.99366 25.7716 2.29155 25.9331 2.97585 25.7399C4.6428 25.2699 6.312 24.8075 7.9758 24.327C8.32446 24.2261 8.62505 24.2573 8.89464 24.4944C9.86246 25.345 10.9619 26.0128 11.9944 26.7733C12.202 26.9262 12.4271 27.0018 12.69 27C13.9036 26.9927 15.1172 26.9941 16.3308 26.9995C16.5666 27.0004 16.776 26.9516 16.9688 26.8118C17.9892 26.0725 19.0689 25.4137 20.0214 24.5826C20.3705 24.2781 20.7111 24.2306 21.146 24.3568C22.8202 24.8432 24.5015 25.3029 26.181 25.7707C26.6919 25.9128 27.0558 25.7123 27.2019 25.2065C27.7033 23.4674 28.1989 21.7264 28.7057 19.989C28.7861 19.7126 28.7686 19.4629 28.6801 19.1909C28.1176 17.4586 27.568 15.7221 27.0131 13.9875ZM11.6889 17.9526C11.3847 17.8621 11.0491 17.7631 10.7139 17.6631C10.3351 17.55 9.95591 17.4373 9.57804 17.3224C9.42797 17.2767 9.3116 17.198 9.30307 17.0188C9.29543 16.8528 9.36417 16.7274 9.5111 16.6591C10.0031 16.4302 10.496 16.2017 10.9934 15.9859C11.17 15.909 11.3367 15.9624 11.4261 16.1429C11.6426 16.5808 11.8588 17.0193 12.0542 17.4672C12.1661 17.7237 11.9922 17.9585 11.6889 17.9526ZM12.0398 8.34473C10.9525 9.20481 9.86336 10.0631 8.77647 10.9241C8.65965 11.0168 8.53924 11.0901 8.39186 11.1299C6.70874 11.5851 5.02696 12.0447 3.34519 12.5031C3.30161 12.5148 3.25847 12.5279 3.23466 12.5343C2.94171 12.5524 2.9125 12.3384 2.86487 12.1538C2.49419 10.7092 2.12755 9.26317 1.75867 7.81809C1.51649 6.86934 1.27656 5.92013 1.02674 4.97319C0.966532 4.74425 0.966981 4.53568 1.0519 4.30901C1.40731 3.36071 1.74744 2.40652 2.09386 1.4546C2.24078 1.05103 2.40523 0.991308 2.74356 1.22612C5.83348 3.36659 8.92295 5.50751 12.0115 7.64979C12.3921 7.91401 12.3966 8.06241 12.0398 8.34473ZM16.3865 24.2627C16.2279 24.26 16.0688 24.2587 15.9102 24.2578C15.4339 24.2555 14.9577 24.2596 14.4814 24.2596C14.1637 24.2596 13.8465 24.2605 13.5288 24.2609C13.2112 24.2614 12.894 24.2609 12.5763 24.2582C12.2497 24.2555 12.1598 24.1365 12.1971 23.8062C12.2393 23.4325 12.2793 23.0584 12.3112 22.6837C12.344 22.2928 12.6909 21.9377 13.0858 21.9345C14.0042 21.9264 14.9231 21.9277 15.8415 21.9341C16.2207 21.9368 16.5581 22.2675 16.603 22.6534C16.6507 23.0611 16.6951 23.4692 16.7491 23.8759C16.7864 24.1623 16.6664 24.2673 16.3865 24.2627ZM19.4885 17.2685C18.7431 17.5246 17.9838 17.7391 17.2896 17.9517C16.9683 17.9544 16.794 17.7309 16.8978 17.4893C17.0896 17.0414 17.3031 16.6026 17.5214 16.1669C17.6063 15.9972 17.7596 15.923 17.9487 16.0081C18.4632 16.2393 18.9812 16.4641 19.4872 16.7134C19.7464 16.8405 19.7527 17.1776 19.4885 17.2685ZM26.1289 12.0769C26.0017 12.5718 25.9618 12.5954 25.4743 12.4628C23.9241 12.0416 22.3758 11.6145 20.8243 11.1996C20.5341 11.1218 20.2847 10.996 20.0488 10.8064C19.0131 9.9753 17.9649 9.15911 16.9229 8.33568C16.5801 8.06467 16.5846 7.90587 16.9427 7.65793C20.0295 5.51701 23.1163 3.37654 26.2039 1.23653C26.5724 0.981355 26.726 1.02931 26.8806 1.4546C27.2418 2.44905 27.599 3.44486 27.9571 4.44022C27.9841 4.51487 28.0048 4.59133 28.029 4.67005C27.9639 4.92387 27.8983 5.17723 27.8336 5.4306C27.2648 7.64572 26.6977 9.86174 26.1289 12.0769Z" fill="#92DCF3"/>
</svg>
