<?xml version="1.0" encoding="UTF-8"?>
<svg width="184px" height="82px" viewBox="0 0 184 82" version="1.1" xmlns="http://www.w3.org/2000/svg" xmlns:xlink="http://www.w3.org/1999/xlink">
    <!-- Generator: Sketch 61.2 (89653) - https://sketch.com -->
    <title>ticket</title>
    <desc>Created with Sketch.</desc>
    <g id="Page-1" stroke="none" stroke-width="1" fill="none" fill-rule="evenodd">
        <g id="ticket">
            <path d="M155,1.5 C155,3.98528 152.985,6 150.5,6 C148.015,6 146,3.98528 146,1.5 L146,1.5 C146,1.23268 145.794,1 145.526,1 L3,1 C1.89543,1 1,1.89543 1,3 L1,26.2821 C1,27.3867 1.9012,28.2656 2.99237,28.4371 C9.07262,29.3929 13.7227,34.653 13.7227,40.9991 C13.7227,47.3452 9.07262,52.6068 2.99236,53.5629 C1.9012,53.7344 1,54.6133 1,55.7179 L1,79 C1,80.1046 1.89543,81 3,81 L145.526,81 C145.794,81 146,80.7673 146,80.5 L146,80.5 C146,78.0147 148.015,76 150.5,76 C152.985,76 155,78.0147 155,80.5 L155,80.5 C155,80.7673 155.206,81 155.474,81 L181,81 C182.105,81 183,80.1046 183,79 L183,55.7179 C183,54.6133 182.099,53.7344 181.008,53.5629 C174.927,52.6072 170.277,47.347 170.277,41.0009 C170.277,34.6549 174.927,29.3947 181.008,28.439 C182.099,28.2674 183,27.3885 183,26.2839 L183,3 C183,1.89543 182.105,1 181,1 L155.474,1 C155.206,1 155,1.23268 155,1.5 L155,1.5 Z" id="Path" fill="#1A3448"></path>
            <path d="M181.008,28.439 L181.085,28.9329 L181.008,28.439 Z M2.99236,53.5629 L3.07003,54.0568 L2.99236,53.5629 Z M2.99237,28.4371 L2.91473,28.931 L2.99237,28.4371 Z M181.008,53.5629 L180.93,54.0568 L181.008,53.5629 Z M150.5,6.5 C153.261,6.5 155.5,4.26142 155.5,1.5 L154.5,1.5 C154.5,3.70914 152.709,5.5 150.5,5.5 L150.5,6.5 Z M145.5,1.5 C145.5,4.26142 147.739,6.5 150.5,6.5 L150.5,5.5 C148.291,5.5 146.5,3.70914 146.5,1.5 L145.5,1.5 Z M3,1.5 L145.526,1.5 L145.526,0.5 L3,0.5 L3,1.5 Z M1.5,26.2821 L1.5,3 L0.5,3 L0.5,26.2821 L1.5,26.2821 Z M14.2227,40.9991 C14.2227,34.4028 9.38949,28.9365 3.07001,27.9432 L2.91473,28.931 C8.75575,29.8492 13.2227,34.9031 13.2227,40.9991 L14.2227,40.9991 Z M3.07003,54.0568 C9.38956,53.0631 14.2227,47.5952 14.2227,40.9991 L13.2227,40.9991 C13.2227,47.0951 8.75568,52.1505 2.9147,53.0689 L3.07003,54.0568 Z M1.5,79 L1.5,55.7179 L0.5,55.7179 L0.5,79 L1.5,79 Z M145.526,80.5 L3,80.5 L3,81.5 L145.526,81.5 L145.526,80.5 Z M146.5,80.5 C146.5,78.2909 148.291,76.5 150.5,76.5 L150.5,75.5 C147.739,75.5 145.5,77.7386 145.5,80.5 L146.5,80.5 Z M150.5,76.5 C152.709,76.5 154.5,78.2909 154.5,80.5 L155.5,80.5 C155.5,77.7386 153.261,75.5 150.5,75.5 L150.5,76.5 Z M181,80.5 L155.474,80.5 L155.474,81.5 L181,81.5 L181,80.5 Z M182.5,55.7179 L182.5,79 L183.5,79 L183.5,55.7179 L182.5,55.7179 Z M169.777,41.0009 C169.777,47.5972 174.611,53.0635 180.93,54.0568 L181.085,53.069 C175.244,52.1508 170.777,47.0969 170.777,41.0009 L169.777,41.0009 Z M180.93,27.945 C174.611,28.9384 169.777,34.4047 169.777,41.0009 L170.777,41.0009 C170.777,34.905 175.244,29.851 181.085,28.9329 L180.93,27.945 Z M182.5,3 L182.5,26.2839 L183.5,26.2839 L183.5,3 L182.5,3 Z M155.474,1.5 L181,1.5 L181,0.5 L155.474,0.5 L155.474,1.5 Z M155.474,0.5 C154.895,0.5 154.5,0.9925 154.5,1.5 L155.5,1.5 C155.5,1.49758 155.5,1.49526 155.501,1.49309 C155.502,1.49072 155.503,1.48964 155.503,1.48982 C155.503,1.49009 155.5,1.49268 155.494,1.49537 C155.488,1.49832 155.48,1.5 155.474,1.5 L155.474,0.5 Z M181.085,28.9329 C182.371,28.7308 183.5,27.6808 183.5,26.2839 L182.5,26.2839 C182.5,27.0963 181.826,27.8041 180.93,27.945 L181.085,28.9329 Z M154.5,80.5 C154.5,81.0075 154.895,81.5 155.474,81.5 L155.474,80.5 C155.48,80.5 155.488,80.5017 155.494,80.5046 C155.5,80.5073 155.503,80.5099 155.503,80.5102 C155.503,80.5104 155.502,80.5093 155.501,80.5069 C155.5,80.5047 155.5,80.5024 155.5,80.5 L154.5,80.5 Z M145.526,81.5 C146.105,81.5 146.5,81.0075 146.5,80.5 L145.5,80.5 C145.5,80.5024 145.5,80.5047 145.499,80.5069 C145.498,80.5093 145.497,80.5104 145.497,80.5102 C145.497,80.5099 145.5,80.5073 145.506,80.5046 C145.512,80.5017 145.52,80.5 145.526,80.5 L145.526,81.5 Z M183.5,3 C183.5,1.61929 182.381,0.5 181,0.5 L181,1.5 C181.828,1.5 182.5,2.17157 182.5,3 L183.5,3 Z M2.9147,53.0689 C1.62888,53.2711 0.5,54.3211 0.5,55.7179 L1.5,55.7179 C1.5,54.9056 2.17352,54.1978 3.07003,54.0568 L2.9147,53.0689 Z M0.5,26.2821 C0.5,27.6789 1.62888,28.7289 2.91473,28.931 L3.07001,27.9432 C2.17351,27.8022 1.5,27.0944 1.5,26.2821 L0.5,26.2821 Z M183.5,55.7179 C183.5,54.3211 182.371,53.2711 181.085,53.069 L180.93,54.0568 C181.826,54.1978 182.5,54.9056 182.5,55.7179 L183.5,55.7179 Z M3,0.5 C1.61929,0.5 0.5,1.61929 0.5,3 L1.5,3 C1.5,2.17157 2.17157,1.5 3,1.5 L3,0.5 Z M0.5,79 C0.5,80.3807 1.61929,81.5 3,81.5 L3,80.5 C2.17157,80.5 1.5,79.8284 1.5,79 L0.5,79 Z M181,81.5 C182.381,81.5 183.5,80.3807 183.5,79 L182.5,79 C182.5,79.8284 181.828,80.5 181,80.5 L181,81.5 Z M146.5,1.5 C146.5,0.992499 146.105,0.5 145.526,0.5 L145.526,1.5 C145.52,1.5 145.512,1.49832 145.506,1.49537 C145.5,1.49268 145.497,1.49009 145.497,1.48982 C145.497,1.48964 145.498,1.49072 145.499,1.49309 C145.5,1.49526 145.5,1.49758 145.5,1.5 L146.5,1.5 Z" id="Shape" fill="#69A7CA" fill-rule="nonzero"></path>
            <line x1="150.375" y1="7.375" x2="150.375" y2="74.625" id="Path" stroke="#FFD47F" stroke-width="0.75" stroke-linecap="round" stroke-dasharray="4"></line>
        </g>
    </g>
</svg>