<svg width="185" height="84" viewBox="0 0 185 84" fill="none" xmlns="http://www.w3.org/2000/svg">
  <path fill-rule="evenodd" clip-rule="evenodd" d="M155 1.5C155 3.98528 152.985 6 150.5 6C148.015 6 146 3.98528 146 1.5V1.5C146 1.23268 145.794 1 145.526 1H3C1.89543 1 1 1.89543 1 3V26.2821C1 27.3867 1.9012 28.2656 2.99237 28.4371C9.07262 29.3929 13.7227 34.653 13.7227 40.9991C13.7227 47.3452 9.07262 52.6068 2.99236 53.5629C1.9012 53.7344 1 54.6133 1 55.7179V79C1 80.1046 1.89543 81 3 81H145.526C145.794 81 146 80.7673 146 80.5V80.5C146 78.0147 148.015 76 150.5 76C152.985 76 155 78.0147 155 80.5V80.5C155 80.7673 155.206 81 155.474 81H181C182.105 81 183 80.1046 183 79V55.7179C183 54.6133 182.099 53.7344 181.008 53.5629C174.927 52.6072 170.277 47.347 170.277 41.0009C170.277 34.6549 174.927 29.3947 181.008 28.439C182.099 28.2674 183 27.3885 183 26.2839V3C183 1.89543 182.105 1 181 1H155.474C155.206 1 155 1.23268 155 1.5V1.5Z" fill="#FFFAF3"/>
  <path d="M181.008 28.439L181.085 28.9329L181.008 28.439ZM2.99236 53.5629L3.07003 54.0568L2.99236 53.5629ZM2.99237 28.4371L2.91473 28.931L2.99237 28.4371ZM181.008 53.5629L180.93 54.0568L181.008 53.5629ZM150.5 6.5C153.261 6.5 155.5 4.26142 155.5 1.5H154.5C154.5 3.70914 152.709 5.5 150.5 5.5V6.5ZM145.5 1.5C145.5 4.26142 147.739 6.5 150.5 6.5V5.5C148.291 5.5 146.5 3.70914 146.5 1.5H145.5ZM3 1.5H145.526V0.5H3V1.5ZM1.5 26.2821V3H0.5V26.2821H1.5ZM14.2227 40.9991C14.2227 34.4028 9.38949 28.9365 3.07001 27.9432L2.91473 28.931C8.75575 29.8492 13.2227 34.9031 13.2227 40.9991H14.2227ZM3.07003 54.0568C9.38956 53.0631 14.2227 47.5952 14.2227 40.9991H13.2227C13.2227 47.0951 8.75568 52.1505 2.9147 53.0689L3.07003 54.0568ZM1.5 79V55.7179H0.5V79H1.5ZM145.526 80.5H3V81.5H145.526V80.5ZM146.5 80.5C146.5 78.2909 148.291 76.5 150.5 76.5V75.5C147.739 75.5 145.5 77.7386 145.5 80.5H146.5ZM150.5 76.5C152.709 76.5 154.5 78.2909 154.5 80.5H155.5C155.5 77.7386 153.261 75.5 150.5 75.5V76.5ZM181 80.5H155.474V81.5H181V80.5ZM182.5 55.7179V79H183.5V55.7179H182.5ZM169.777 41.0009C169.777 47.5972 174.611 53.0635 180.93 54.0568L181.085 53.069C175.244 52.1508 170.777 47.0969 170.777 41.0009H169.777ZM180.93 27.945C174.611 28.9384 169.777 34.4047 169.777 41.0009H170.777C170.777 34.905 175.244 29.851 181.085 28.9329L180.93 27.945ZM182.5 3V26.2839H183.5V3H182.5ZM155.474 1.5H181V0.5H155.474V1.5ZM155.474 0.5C154.895 0.5 154.5 0.9925 154.5 1.5H155.5C155.5 1.49758 155.5 1.49526 155.501 1.49309C155.502 1.49072 155.503 1.48964 155.503 1.48982C155.503 1.49009 155.5 1.49268 155.494 1.49537C155.488 1.49832 155.48 1.5 155.474 1.5V0.5ZM181.085 28.9329C182.371 28.7308 183.5 27.6808 183.5 26.2839H182.5C182.5 27.0963 181.826 27.8041 180.93 27.945L181.085 28.9329ZM154.5 80.5C154.5 81.0075 154.895 81.5 155.474 81.5V80.5C155.48 80.5 155.488 80.5017 155.494 80.5046C155.5 80.5073 155.503 80.5099 155.503 80.5102C155.503 80.5104 155.502 80.5093 155.501 80.5069C155.5 80.5047 155.5 80.5024 155.5 80.5H154.5ZM145.526 81.5C146.105 81.5 146.5 81.0075 146.5 80.5H145.5C145.5 80.5024 145.5 80.5047 145.499 80.5069C145.498 80.5093 145.497 80.5104 145.497 80.5102C145.497 80.5099 145.5 80.5073 145.506 80.5046C145.512 80.5017 145.52 80.5 145.526 80.5V81.5ZM183.5 3C183.5 1.61929 182.381 0.5 181 0.5V1.5C181.828 1.5 182.5 2.17157 182.5 3H183.5ZM2.9147 53.0689C1.62888 53.2711 0.5 54.3211 0.5 55.7179H1.5C1.5 54.9056 2.17352 54.1978 3.07003 54.0568L2.9147 53.0689ZM0.5 26.2821C0.5 27.6789 1.62888 28.7289 2.91473 28.931L3.07001 27.9432C2.17351 27.8022 1.5 27.0944 1.5 26.2821H0.5ZM183.5 55.7179C183.5 54.3211 182.371 53.2711 181.085 53.069L180.93 54.0568C181.826 54.1978 182.5 54.9056 182.5 55.7179H183.5ZM3 0.5C1.61929 0.5 0.5 1.61929 0.5 3H1.5C1.5 2.17157 2.17157 1.5 3 1.5V0.5ZM0.5 79C0.5 80.3807 1.61929 81.5 3 81.5V80.5C2.17157 80.5 1.5 79.8284 1.5 79H0.5ZM181 81.5C182.381 81.5 183.5 80.3807 183.5 79H182.5C182.5 79.8284 181.828 80.5 181 80.5V81.5ZM146.5 1.5C146.5 0.992499 146.105 0.5 145.526 0.5V1.5C145.52 1.5 145.512 1.49832 145.506 1.49537C145.5 1.49268 145.497 1.49009 145.497 1.48982C145.497 1.48964 145.498 1.49072 145.499 1.49309C145.5 1.49526 145.5 1.49758 145.5 1.5H146.5Z" fill="#69A7CA"/>
  <line x1="150.375" y1="7.375" x2="150.375" y2="74.625" stroke="#69A7CA" stroke-opacity="0.6" stroke-width="0.75" stroke-linecap="round" stroke-dasharray="4 6"/>
</svg>
