<?xml version="1.0" encoding="UTF-8"?>
<svg width="216px" height="9px" viewBox="0 0 216 9" version="1.1" xmlns="http://www.w3.org/2000/svg" xmlns:xlink="http://www.w3.org/1999/xlink">
    <g id="Page-1" stroke="none" stroke-width="1" fill="none" fill-rule="evenodd">
        <path d="M216,0 L216,3 C216,6.314 213.314,9 210,9 L201.885,9 C201.373,9 201,8.512 201,8 C201,5.791 199.209,4 197,4 C194.791,4 193,5.791 193,8 C193,8.512 192.627,9 192.115,9 L185.885,9 C185.373,9 185,8.512 185,8 C185,5.791 183.209,4 181,4 C178.791,4 177,5.791 177,8 C177,8.512 176.627,9 176.115,9 L169.885,9 C169.373,9 169,8.512 169,8 C169,5.791 167.209,4 165,4 C162.791,4 161,5.791 161,8 C161,8.512 160.627,9 160.115,9 L153.885,9 C153.373,9 153,8.512 153,8 C153,5.791 151.209,4 149,4 C146.791,4 145,5.791 145,8 C145,8.512 144.627,9 144.115,9 L137.885,9 C137.373,9 137,8.512 137,8 C137,5.791 135.209,4 133,4 C130.791,4 129,5.791 129,8 C129,8.512 128.627,9 128.115,9 L121.885,9 C121.373,9 121,8.512 121,8 C121,5.791 119.209,4 117,4 C114.791,4 113,5.791 113,8 C113,8.512 112.627,9 112.115,9 L105.885,9 C105.373,9 105,8.512 105,8 C105,5.791 103.209,4 101,4 C98.7909,4 97,5.791 97,8 C97,8.512 96.6273,9 96.1154,9 L89.8846,9 C89.3727,9 89,8.512 89,8 C89,5.791 87.2091,4 85,4 C82.7909,4 81,5.791 81,8 C81,8.512 80.6273,9 80.1154,9 L73.8846,9 C73.3727,9 73,8.512 73,8 C73,5.791 71.2091,4 69,4 C66.7909,4 65,5.791 65,8 C65,8.512 64.6273,9 64.1154,9 L57.8846,9 C57.3727,9 57,8.512 57,8 C57,5.791 55.2091,4 53,4 C50.7909,4 49,5.791 49,8 C49,8.512 48.6273,9 48.1154,9 L41.8846,9 C41.3727,9 41,8.512 41,8 C41,5.791 39.2091,4 37,4 C34.7909,4 33,5.791 33,8 C33,8.512 32.6273,9 32.1154,9 L25.8846,9 C25.3727,9 25,8.512 25,8 C25,5.791 23.2091,4 21,4 C18.7909,4 17,5.791 17,8 C17,8.512 16.6273,9 16.1154,9 L6,9 C2.68629,9 0,6.314 0,3 L0,0 L216,0 Z" id="Path" fill="#FFFFFF"></path>
    </g>
</svg>